<svg xmlns="http://www.w3.org/2000/svg" viewBox="0 0 800 600" width="100%" height="100%">
  <!-- Background gradient -->
  <defs>
    <linearGradient id="bg-gradient" x1="0%" y1="0%" x2="100%" y2="100%">
      <stop offset="0%" stop-color="#4a6cf7" stop-opacity="0.1"/>
      <stop offset="100%" stop-color="#4a6cf7" stop-opacity="0.05"/>
    </linearGradient>
    <!-- Developer silhouette gradient -->
    <linearGradient id="dev-gradient" x1="0%" y1="0%" x2="100%" y2="100%">
      <stop offset="0%" stop-color="#4a6cf7"/>
      <stop offset="100%" stop-color="#6d8dff"/>
    </linearGradient>
  </defs>
  
  <!-- Background shape -->
  <rect x="0" y="0" width="800" height="600" fill="url(#bg-gradient)" rx="20" ry="20"/>
  
  <!-- Code window -->
  <rect x="100" y="100" width="400" height="300" rx="10" ry="10" fill="#1e1e1e" stroke="#2d2d2d" stroke-width="2"/>
  <rect x="100" y="100" width="400" height="30" rx="10" ry="10" fill="#2d2d2d"/>
  <circle cx="120" cy="115" r="5" fill="#ff5f57"/>
  <circle cx="140" cy="115" r="5" fill="#febc2e"/>
  <circle cx="160" cy="115" r="5" fill="#28c840"/>
  
  <!-- Code lines -->
  <rect x="120" y="150" width="200" height="10" rx="2" ry="2" fill="#6d8dff" opacity="0.7"/>
  <rect x="120" y="170" width="300" height="10" rx="2" ry="2" fill="#6d8dff" opacity="0.5"/>
  <rect x="120" y="190" width="250" height="10" rx="2" ry="2" fill="#6d8dff" opacity="0.7"/>
  <rect x="120" y="210" width="350" height="10" rx="2" ry="2" fill="#6d8dff" opacity="0.6"/>
  <rect x="120" y="230" width="200" height="10" rx="2" ry="2" fill="#6d8dff" opacity="0.5"/>
  <rect x="120" y="250" width="300" height="10" rx="2" ry="2" fill="#6d8dff" opacity="0.7"/>
  <rect x="120" y="270" width="250" height="10" rx="2" ry="2" fill="#6d8dff" opacity="0.6"/>
  <rect x="120" y="290" width="150" height="10" rx="2" ry="2" fill="#6d8dff" opacity="0.5"/>
  <rect x="120" y="310" width="200" height="10" rx="2" ry="2" fill="#6d8dff" opacity="0.7"/>
  <rect x="120" y="330" width="300" height="10" rx="2" ry="2" fill="#6d8dff" opacity="0.6"/>
  
  <!-- Developer silhouette -->
  <path d="M600 300 C600 200, 700 200, 700 300 L700 450 L600 450 Z" fill="url(#dev-gradient)"/>
  <circle cx="650" cy="200" r="50" fill="url(#dev-gradient)"/>
  
  <!-- Floating elements -->
  <circle cx="550" cy="150" r="20" fill="#4a6cf7" opacity="0.2"/>
  <circle cx="700" cy="120" r="15" fill="#4a6cf7" opacity="0.3"/>
  <circle cx="750" cy="250" r="25" fill="#4a6cf7" opacity="0.2"/>
  <circle cx="500" cy="350" r="15" fill="#4a6cf7" opacity="0.3"/>
  <circle cx="600" cy="450" r="20" fill="#4a6cf7" opacity="0.2"/>
  
  <!-- Gear icons -->
  <circle cx="500" cy="200" r="30" fill="none" stroke="#4a6cf7" stroke-width="3"/>
  <circle cx="500" cy="200" r="20" fill="none" stroke="#4a6cf7" stroke-width="2"/>
  <circle cx="500" cy="200" r="10" fill="#4a6cf7"/>
  
  <circle cx="750" cy="350" r="25" fill="none" stroke="#4a6cf7" stroke-width="3"/>
  <circle cx="750" cy="350" r="15" fill="none" stroke="#4a6cf7" stroke-width="2"/>
  <circle cx="750" cy="350" r="5" fill="#4a6cf7"/>
</svg>