<svg xmlns="http://www.w3.org/2000/svg" viewBox="0 0 400 300" width="100%" height="100%">
  <defs>
    <linearGradient id="project-gradient" x1="0%" y1="0%" x2="100%" y2="100%">
      <stop offset="0%" stop-color="#4a6cf7"/>
      <stop offset="100%" stop-color="#6d8dff"/>
    </linearGradient>
  </defs>
  
  <rect x="0" y="0" width="400" height="300" fill="#1e1e1e"/>
  
  <!-- Cloud infrastructure visualization -->
  <path d="M100,150 Q130,100 180,120 Q200,80 240,100 Q280,80 300,120 Q350,110 340,160 Q360,200 320,210 Q300,250 250,230 Q200,260 160,220 Q120,230 110,190 Q80,180 100,150" fill="#2d2d2d" stroke="#4a6cf7" stroke-width="2"/>
  
  <!-- Server racks -->
  <rect x="150" y="140" width="100" height="60" rx="5" ry="5" fill="url(#project-gradient)" opacity="0.7"/>
  <rect x="160" y="150" width="80" height="10" fill="#1e1e1e"/>
  <rect x="160" y="165" width="80" height="10" fill="#1e1e1e"/>
  <rect x="160" y="180" width="80" height="10" fill="#1e1e1e"/>
  
  <!-- Connection lines -->
  <line x1="150" y1="170" x2="120" y2="170" stroke="#4a6cf7" stroke-width="2"/>
  <line x1="250" y1="170" x2="280" y2="170" stroke="#4a6cf7" stroke-width="2"/>
  <line x1="200" y1="140" x2="200" y2="110" stroke="#4a6cf7" stroke-width="2"/>
  <line x1="200" y1="200" x2="200" y2="230" stroke="#4a6cf7" stroke-width="2"/>
  
  <!-- Connection nodes -->
  <circle cx="120" cy="170" r="5" fill="#6d8dff"/>
  <circle cx="280" cy="170" r="5" fill="#6d8dff"/>
  <circle cx="200" cy="110" r="5" fill="#6d8dff"/>
  <circle cx="200" cy="230" r="5" fill="#6d8dff"/>
</svg>