<svg xmlns="http://www.w3.org/2000/svg" viewBox="0 0 400 300" width="100%" height="100%">
  <defs>
    <linearGradient id="project-gradient" x1="0%" y1="0%" x2="100%" y2="100%">
      <stop offset="0%" stop-color="#4a6cf7"/>
      <stop offset="100%" stop-color="#6d8dff"/>
    </linearGradient>
  </defs>
  
  <rect x="0" y="0" width="400" height="300" fill="#1e1e1e"/>
  
  <!-- Mobile app visualization -->
  <rect x="120" y="50" width="160" height="200" rx="20" ry="20" fill="#2d2d2d" stroke="#4a6cf7" stroke-width="2"/>
  <rect x="130" y="70" width="140" height="160" rx="5" ry="5" fill="#1e1e1e"/>
  
  <!-- App UI elements -->
  <rect x="140" y="80" width="120" height="30" rx="5" ry="5" fill="url(#project-gradient)" opacity="0.7"/>
  <circle cx="155" cy="95" r="10" fill="#6d8dff"/>
  <rect x="170" y="90" width="80" height="10" fill="#1e1e1e"/>
  
  <rect x="140" y="120" width="120" height="40" rx="5" ry="5" fill="url(#project-gradient)" opacity="0.5"/>
  <rect x="150" y="130" width="100" height="5" fill="#1e1e1e"/>
  <rect x="150" y="145" width="80" height="5" fill="#1e1e1e"/>
  
  <rect x="140" y="170" width="55" height="55" rx="5" ry="5" fill="url(#project-gradient)" opacity="0.6"/>
  <rect x="205" y="170" width="55" height="55" rx="5" ry="5" fill="url(#project-gradient)" opacity="0.4"/>
  
  <!-- Home button -->
  <circle cx="200" cy="245" r="10" stroke="#4a6cf7" stroke-width="2" fill="none"/>
</svg>